<?xml version="1.0" encoding="UTF-8"?>
<svg version="1.1" xmlns="http://www.w3.org/2000/svg" width="1045" height="502">
<path d="M0 0 C344.85 0 689.7 0 1045 0 C1045 165.66 1045 331.32 1045 502 C700.15 502 355.3 502 0 502 C0 336.34 0 170.68 0 0 Z " fill="#FEFEFE" transform="translate(0,0)"/>
<path d="M0 0 C2.44192746 0.00560795 4.88385834 0.00987236 7.32579041 0.01286316 C13.69611226 0.02421759 20.06622294 0.05360207 26.4364624 0.0869751 C32.95956568 0.11788061 39.4827037 0.13141192 46.00585938 0.14648438 C58.76310997 0.17848221 71.52021553 0.22897069 84.27734375 0.29296875 C84.3002089 36.32847297 84.31784135 72.36397593 84.32840908 108.39948591 C84.32965986 112.64921783 84.33095417 116.89894974 84.33227539 121.14868164 C84.33266886 122.41780415 84.33266886 122.41780415 84.33307027 123.71256549 C84.33742722 137.43062801 84.3453149 151.14868637 84.35449655 164.86674642 C84.3638324 178.93201533 84.36939921 192.99728206 84.37143224 207.06255394 C84.37280761 215.74872845 84.37715896 224.43489117 84.38526022 233.12106205 C84.39052683 239.06921545 84.39214824 245.01736272 84.39084513 250.96551829 C84.39020161 254.40252752 84.39122074 257.83951608 84.39654922 261.27652168 C84.40147883 264.99401126 84.40034476 268.7114492 84.39759827 272.42893982 C84.40196753 274.07627811 84.40196753 274.07627811 84.40642506 275.75689596 C84.40443401 276.74468796 84.40244296 277.73247995 84.40039158 278.75020504 C84.4007713 279.60951215 84.40115102 280.46881925 84.40154225 281.35416597 C84.27734375 283.29296875 84.27734375 283.29296875 83.27734375 284.29296875 C80.35381432 284.40428831 77.45369874 284.45037281 74.52929688 284.45410156 C73.61036148 284.45906647 72.69142609 284.46403137 71.74464417 284.46914673 C68.68261985 284.48383056 65.62064761 284.49058627 62.55859375 284.49609375 C60.42598469 284.50184715 58.29337564 284.50760486 56.1607666 284.5133667 C51.67146565 284.52389909 47.18218268 284.52972477 42.69287109 284.53320312 C36.98295878 284.53864411 31.27329026 284.56256714 25.56345367 284.59117508 C21.14662021 284.60996275 16.72984304 284.61501591 12.31297302 284.616539 C10.21136668 284.61953795 8.10976066 284.62747137 6.00819397 284.64072418 C-9.97454604 284.73418464 -25.45720122 283.95150371 -40.53515625 278.10546875 C-41.32575439 277.80576172 -42.11635254 277.50605469 -42.9309082 277.19726562 C-49.89439586 274.44113667 -55.80637726 270.91909344 -61.72265625 266.29296875 C-62.46773437 265.72835938 -63.2128125 265.16375 -63.98046875 264.58203125 C-72.53047175 257.65750411 -77.79093403 248.43410056 -81.72265625 238.29296875 C-82.11710938 237.349375 -82.5115625 236.40578125 -82.91796875 235.43359375 C-85.84318606 227.21025559 -86.11009724 219.33701116 -86.16015625 210.66796875 C-86.17022705 209.53617188 -86.18029785 208.404375 -86.19067383 207.23828125 C-86.08230939 196.66314193 -84.08346149 186.81990138 -79.28515625 177.35546875 C-78.94806641 176.68725098 -78.61097656 176.0190332 -78.26367188 175.33056641 C-72.66428996 164.85534616 -64.26452751 157.1496751 -54.72265625 150.29296875 C-55.8828125 149.68710938 -57.04296875 149.08125 -58.23828125 148.45703125 C-79.24155908 137.2817193 -93.35764659 123.6784624 -101.890625 101.21875 C-106.91562245 83.54868854 -105.7537565 58.54280559 -96.72265625 42.29296875 C-96.30242188 41.49761719 -95.8821875 40.70226562 -95.44921875 39.8828125 C-85.6014911 22.28203961 -69.03846169 10.83410709 -49.91015625 5.04296875 C-33.00109127 0.80023086 -17.3798894 -0.1184586 0 0 Z " fill="#FF99D8" transform="translate(697.72265625,102.70703125)"/>
<path d="M0 0 C2.71333735 1.23333516 4.88116453 2.88116453 7 5 C7.08986752 7.73257643 7.11492313 10.43970354 7.09765625 13.17236328 C7.09546585 14.45781792 7.09546585 14.45781792 7.0932312 15.76924133 C7.08941473 17.63757015 7.08328729 19.5058953 7.07516479 21.37421036 C7.0624435 24.33345511 7.05589569 27.29265521 7.05102539 30.25192261 C7.03762372 37.60817757 7.01350925 44.96439061 6.98962402 52.32061768 C6.96986783 58.52394244 6.95423185 64.7272511 6.94406128 70.93059921 C6.93759189 73.84146747 6.92507892 76.75226981 6.91235352 79.66311646 C6.90871853 81.4591669 6.90536711 83.25521795 6.90234375 85.05126953 C6.89459427 86.25948616 6.89459427 86.25948616 6.88668823 87.49211121 C6.88625905 92.1010027 7.23633591 96.45307491 8 101 C11.56509901 100.37532883 14.76517245 99.42940482 18.1328125 98.109375 C19.10476562 97.72910156 20.07671875 97.34882813 21.078125 96.95703125 C22.08359375 96.55871094 23.0890625 96.16039062 24.125 95.75 C25.10726562 95.36714844 26.08953125 94.98429687 27.1015625 94.58984375 C32.94625005 92.29042062 38.67541891 89.81450202 44.37939453 87.18701172 C48.33080539 85.3972074 52.3377929 83.7722962 56.375 82.1875 C57.14199219 81.87619141 57.90898437 81.56488281 58.69921875 81.24414062 C66.03437416 78.36201997 66.03437416 78.36201997 70 79 C72.8125 81.3125 72.8125 81.3125 75 84 C75 84.99 75 85.98 75 87 C76.36125 87.0928125 76.36125 87.0928125 77.75 87.1875 C81.90027864 88.22506966 82.75116565 89.40569943 85 93 C85.39497043 95.68230813 85.56508571 97.95823813 85.54589844 100.63598633 C85.55623611 101.38774139 85.56657379 102.13949646 85.57722473 102.91403198 C85.60660921 105.38691817 85.60815092 107.85898434 85.609375 110.33203125 C85.62435966 112.05125994 85.64108742 113.77047424 85.65948486 115.4896698 C85.70313877 120.00565255 85.72315306 124.52144111 85.73822021 129.03759766 C85.75779841 133.64953077 85.79976762 138.26125439 85.83984375 142.87304688 C85.91512456 151.91529994 85.96542889 160.95750606 86 170 C86.33904861 168.96948517 86.67809723 167.93897034 87.02742004 166.87722778 C87.47888043 165.51203387 87.93043895 164.14687241 88.38208008 162.78173828 C88.604748 162.10407913 88.82741592 161.42641998 89.05683136 160.72822571 C90.64404134 155.93974327 92.38467221 151.36055624 94.6875 146.875 C95.02289795 146.21669189 95.3582959 145.55838379 95.70385742 144.88012695 C107.23912097 123.04448655 127.40372804 105.61811922 150.78515625 97.64453125 C157.48952024 95.62373819 164.00095123 94.24026585 171 94 C172.63582031 93.94005859 172.63582031 93.94005859 174.3046875 93.87890625 C193.24643473 93.52659804 193.24643473 93.52659804 198.85546875 97.22265625 C201.30128683 99.79179289 202.00667943 102.04156087 202.5625 105.5 C201.7642362 110.46697477 199.50743719 113.49256281 196 117 C193.9597168 117.27124023 193.9597168 117.27124023 191.44921875 117.30859375 C190.52939209 117.33147461 189.60956543 117.35435547 188.66186523 117.37792969 C187.68032471 117.39758789 186.69878418 117.41724609 185.6875 117.4375 C162.38582081 118.22579684 141.44114038 126.32540599 124 142 C123.34257812 142.58652344 122.68515625 143.17304688 122.0078125 143.77734375 C112.75272097 152.51826352 107.31965282 163.63458791 102 175 C101.37931641 176.29550781 101.37931641 176.29550781 100.74609375 177.6171875 C97.18776477 185.68273319 95.6607862 194.39161966 94 203 C93.78664757 204.08663437 93.78664757 204.08663437 93.56898499 205.19522095 C91.13268977 218.19577473 90.7254995 231.10606551 90.6640625 244.2890625 C90.65752624 245.57839943 90.65752624 245.57839943 90.65085793 246.89378357 C90.61538063 254.98065225 90.61735868 263.06739602 90.63964844 271.15429688 C90.65054569 275.62133905 90.63745438 280.08779898 90.60975266 284.55475998 C90.604324 286.24284886 90.60834561 287.93099647 90.62215042 289.61903763 C90.64114449 291.96103892 90.62984744 294.3011 90.61181641 296.64306641 C90.63182457 297.67771278 90.63182457 297.67771278 90.65223694 298.73326111 C90.58968579 302.37954701 90.2416933 303.75351858 87.64926147 306.39730835 C83.32226513 309.01495896 80.0119038 309.42473761 75 309 C71.29609979 306.97333762 69.34636989 305.51955484 67 302 C66.76682018 299.42318448 66.65027224 296.94772096 66.62109375 294.3671875 C66.60446182 293.57121658 66.5878299 292.77524567 66.57069397 291.95515442 C66.51698791 289.26185876 66.47735081 286.5685337 66.4375 283.875 C66.40182785 281.95937647 66.36534709 280.04376786 66.328125 278.12817383 C66.11061997 266.52878107 65.95373252 254.92832024 65.7856617 243.328125 C65.75389317 241.14363209 65.72177431 238.95914458 65.68955994 236.7746582 C65.66810332 235.31542995 65.64666472 233.85620144 65.62524414 232.39697266 C65.6093274 231.31385992 65.6093274 231.31385992 65.5930891 230.20886612 C65.53042937 225.90427418 65.47267517 221.59965011 65.41892147 217.29493809 C65.39260679 215.22603824 65.36453295 213.15717019 65.33580017 211.08830261 C65.30081633 208.55409304 65.26870816 206.01984118 65.24024963 203.48554993 C65.15447467 197.55161783 64.93050213 191.66567582 64.48852539 185.74707031 C63.87553727 177.12766768 63.87363918 168.54591983 63.90234375 159.91015625 C63.90421466 158.22765648 63.90563537 156.54515616 63.90663147 154.86265564 C63.91040375 150.48819406 63.92018716 146.11376702 63.93133545 141.73931885 C63.94166498 137.25395169 63.94615352 132.76857881 63.95117188 128.28320312 C63.96181558 119.52211977 63.9788263 110.76106421 64 102 C63.22742355 102.38989105 62.45484711 102.7797821 61.65885925 103.18148804 C55.79048932 106.13147131 49.914123 109.02857455 43.92578125 111.7265625 C42.88456367 112.19900894 42.88456367 112.19900894 41.8223114 112.68099976 C39.65334529 113.66449399 37.48294828 114.64478185 35.3125 115.625 C33.85342277 116.28625348 32.39443794 116.94771089 30.93554688 117.609375 C28.17022883 118.86293144 25.4035077 120.11329205 22.63525391 121.36035156 C20.43720245 122.35176282 18.24099506 123.34729655 16.04833984 124.35058594 C10.21939589 127 10.21939589 127 8 127 C8.02505615 128.28750656 8.0501123 129.57501312 8.07592773 130.90153503 C10.20299485 240.57613348 10.20299485 240.57613348 10.30505371 281.21094131 C10.31248936 283.37190765 10.3257137 285.53276804 10.34057617 287.69369507 C10.3666079 291.61616828 10.36723763 295.53837223 10.36328125 299.4609375 C10.37241043 300.57937546 10.38153961 301.69781342 10.39094543 302.85014343 C10.35621516 308.57893206 10.26630275 312.73369725 6 317 C0.17892258 317.61274499 -3.40557353 316.92851428 -8.29714966 313.68652344 C-10.93200078 311.07693523 -11.02854586 308.7706318 -11.1857605 305.1638031 C-11.18504547 304.26412308 -11.18433044 303.36444305 -11.18359375 302.4375 C-11.21397736 301.47791885 -11.24436096 300.51833771 -11.27566528 299.52967834 C-11.36685981 296.35283688 -11.40225921 293.17791438 -11.4375 290 C-11.49065406 287.78043342 -11.54726936 285.56094728 -11.60717773 283.34155273 C-11.75604808 277.44750059 -11.85621151 271.55364034 -11.9432373 265.65838623 C-12.03826834 259.53358487 -12.16562959 253.40943955 -12.2890625 247.28515625 C-12.42902275 240.28337137 -12.56292402 233.2818241 -12.65991211 226.27929688 C-12.67593475 225.2037706 -12.6919574 224.12824432 -12.70846558 223.02012634 C-12.73754283 221.03007232 -12.7634226 219.03996739 -12.78518677 217.04981995 C-12.85352764 212.52584162 -13.05392916 208.06633403 -13.49780273 203.56274414 C-14.06879272 197.73506291 -14.20415544 191.93843267 -14.28125 186.0859375 C-14.29965942 184.99084869 -14.31806885 183.89575989 -14.33703613 182.76748657 C-14.41486071 178.13316532 -14.48327708 173.49871801 -14.55224609 168.86425781 C-14.60430526 165.4589194 -14.66140445 162.05369035 -14.71875 158.6484375 C-14.73232544 157.61383392 -14.74590088 156.57923035 -14.7598877 155.51327515 C-14.86010787 149.60903873 -15.25074429 143.85829995 -16 138 C-23.63367332 138.66472998 -30.44182429 141.57135783 -37.55078125 144.29296875 C-43.15009931 146.34042581 -47.19839488 147.81395833 -53 146 C-56.14988842 143.57755218 -58.73496022 139.96129436 -59.2734375 135.9765625 C-59.32371094 134.81253906 -59.32371094 134.81253906 -59.375 133.625 C-59.42398438 132.85414063 -59.47296875 132.08328125 -59.5234375 131.2890625 C-58.73284919 127.8317136 -56.89623588 126.99862168 -54 125 C-51.20161661 123.67299009 -48.32638723 122.60696936 -45.41796875 121.546875 C-44.60378983 121.24179016 -43.7896109 120.93670532 -42.95075989 120.62237549 C-40.36617001 119.65616149 -37.77701343 118.70292939 -35.1875 117.75 C-33.42741643 117.09460323 -31.66764701 116.43836212 -29.90820312 115.78125 C-25.60904393 114.1777031 -21.30574399 112.58577633 -17 111 C-16.99857498 109.71040375 -16.99714996 108.4208075 -16.99568176 107.09213257 C-16.97901157 94.93829247 -16.93623689 82.78478719 -16.86790943 70.6311245 C-16.83362028 64.38277766 -16.80852638 58.13467585 -16.80444336 51.88623047 C-16.80016467 45.85597591 -16.77173653 39.82627425 -16.72656822 33.79619217 C-16.71357966 31.49574631 -16.70929031 29.19523433 -16.71384621 26.89475632 C-16.71874224 23.67190617 -16.69270174 20.45067812 -16.65942383 17.22802734 C-16.66804947 16.27712219 -16.67667511 15.32621704 -16.68556213 14.34649658 C-16.6092004 9.93426745 -16.41424782 6.93134568 -13.58378601 3.42324829 C-9.32570445 -0.57026697 -5.67291417 -0.72339174 0 0 Z " fill="#FFC2C2" transform="translate(117,82)"/>
<path d="M0 0 C1.45922696 0.00294711 2.91845604 0.00498343 4.37768555 0.00610352 C9.73880215 0.01651345 15.09987324 0.04443576 20.4609375 0.0703125 C32.4646875 0.1115625 44.4684375 0.1528125 56.8359375 0.1953125 C56.8359375 31.2153125 56.8359375 62.2353125 56.8359375 94.1953125 C40.9340625 94.2571875 40.9340625 94.2571875 24.7109375 94.3203125 C19.73362549 94.34762451 19.73362549 94.34762451 14.65576172 94.37548828 C11.98405112 94.38133724 9.31233871 94.38643184 6.640625 94.390625 C5.96734161 94.39585175 5.29405823 94.40107849 4.60037231 94.40646362 C-12.79037837 94.53444093 -32.14077995 93.54113901 -46.0390625 81.7578125 C-46.7403125 80.9121875 -47.4415625 80.0665625 -48.1640625 79.1953125 C-48.65261719 78.68355469 -49.14117188 78.17179687 -49.64453125 77.64453125 C-58.29631088 68.35187905 -59.36028789 58.65214891 -59.4140625 46.4453125 C-59.4346875 45.2903125 -59.4553125 44.1353125 -59.4765625 42.9453125 C-59.50713431 36.25008671 -59.01251172 31.26971626 -56.1640625 25.1953125 C-55.79925781 24.36902344 -55.43445313 23.54273438 -55.05859375 22.69140625 C-50.55030761 14.11426981 -44.01877938 8.91082115 -35.1640625 5.1953125 C-34.52726563 4.91945312 -33.89046875 4.64359375 -33.234375 4.359375 C-22.39002082 -0.03933894 -11.51662875 -0.07819682 0 0 Z " fill="#FFFEFE" transform="translate(689.1640625,135.8046875)"/>
<path d="M0 0 C2.616829 0.99702328 4.82401693 1.98302967 7.25 3.3125 C7.92184326 3.66425293 8.59368652 4.01600586 9.28588867 4.37841797 C11.53538337 5.56543109 13.76841 6.77967924 16 8 C16.82773926 8.44939941 17.65547852 8.89879883 18.50830078 9.36181641 C23.52826028 12.09094015 28.52981933 14.85179914 33.52294922 17.62963867 C36.12148506 19.06720833 38.72982015 20.4857484 41.33984375 21.90234375 C59.24266458 31.65926368 76.58234415 42.08818187 93.55566406 53.3828125 C96.88701492 55.58685446 100.25374863 57.73275087 103.625 59.875 C111.4458176 64.89195134 119.09067238 70.15518563 126.609375 75.61328125 C132.86915694 80.15208331 139.07029751 84.52065147 146 88 C146.61359375 88.36609375 147.2271875 88.7321875 147.859375 89.109375 C155.33422583 92.21934943 165.40573261 89.91999537 173 88 C173 87.34 173 86.68 173 86 C174.45019531 85.20722656 174.45019531 85.20722656 175.9296875 84.3984375 C180.53574582 81.76409537 184.80703258 78.70138617 189.125 75.625 C226.16830143 49.48447764 264.97581386 25.0025401 305.75 5.0625 C306.56436523 4.65539795 307.37873047 4.2482959 308.21777344 3.82885742 C313.32800419 1.40176565 318.27724138 -0.17575679 324 0 C326.625 1.375 326.625 1.375 328 4 C328.40436861 12.35695121 324.5524679 20.14140389 320 27 C315.92007464 30.33553786 312.14761754 31.76322874 307.0625 33 C305.73827017 33.33328931 304.41405175 33.66662398 303.08984375 34 C301.72661765 34.33355879 300.36333628 34.66689183 299 35 C287.80633966 37.72520291 287.80633966 37.72520291 277.125 41.97265625 C275.34031637 42.83547205 273.52089409 43.62591007 271.6953125 44.3984375 C259.9451683 49.40897664 249.80298078 55.88020673 240 64 C239.47728516 64.42651855 238.95457031 64.85303711 238.41601562 65.29248047 C225.03600783 76.22442411 212.37631945 87.89646381 201.21875 101.109375 C198.20652408 104.64189449 195.09856198 108.03205569 191.75 111.25 C191.10546875 111.87390625 190.4609375 112.4978125 189.796875 113.140625 C180.40776228 119.3825491 170.80707423 119.63404547 159.91137695 119.52148438 C157.43797128 119.50000409 154.9674593 119.5213895 152.49414062 119.546875 C141.08845642 119.56737631 131.9127467 118.45303253 123.26953125 110.3203125 C116.9501153 103.85949826 110.75561271 97.27288165 104.9140625 90.375 C93.24583645 76.68323884 78.54526817 63.80536129 62.73046875 55.15625 C62.15941406 54.7746875 61.58835937 54.393125 61 54 C61 53.34 61 52.68 61 52 C60.01386719 51.62488281 60.01386719 51.62488281 59.0078125 51.2421875 C54.50498562 49.38257848 50.14461394 47.23038605 45.765625 45.09765625 C35.30373709 40.09497167 24.58948381 36.98081664 13.34179688 34.2890625 C-0.5917848 30.81733284 -0.5917848 30.81733284 -5.0234375 25.6328125 C-9.17158929 17.93595283 -12.50143821 10.97634024 -11 2 C-7.26481185 -0.49012543 -4.32546646 -0.55411334 0 0 Z " fill="#E0A9EE" transform="translate(270,247)"/>
<path d="M0 0 C1.06367294 0.00222061 2.12734589 0.00444122 3.22325134 0.00672913 C5.05031616 0.0069104 5.05031616 0.0069104 6.91429138 0.00709534 C8.20468323 0.0122113 9.49507507 0.01732727 10.8245697 0.02259827 C12.00305481 0.02360535 13.18153992 0.02461243 14.39573669 0.02565002 C18.81863878 0.03090136 23.24152704 0.04486247 27.66441345 0.05775452 C37.54378845 0.07837952 47.42316345 0.09900452 57.60191345 0.12025452 C57.60191345 30.15025452 57.60191345 60.18025452 57.60191345 91.12025452 C46.40253845 91.15119202 46.40253845 91.15119202 34.97691345 91.18275452 C32.65063904 91.19185852 30.32436462 91.20096252 27.92759705 91.21034241 C-15.39812374 91.31165603 -15.39812374 91.31165603 -31.1285553 76.62025452 C-41.34745786 65.36363207 -41.16274324 51.0530263 -40.59339905 36.75062561 C-39.78752713 25.89754562 -33.7351552 18.10669315 -26.08558655 10.87025452 C-19.76820848 5.47349938 -13.24650894 3.0191802 -5.14808655 1.51478577 C-2.71959968 0.96729208 -2.69102073 0.134944 0 0 Z " fill="#FFFEFE" transform="translate(688.3980865478516,261.87974548339844)"/>
<path d="M0 0 C62.7 0 125.4 0 190 0 C190 11.88 190 23.76 190 36 C127.3 36 64.6 36 0 36 C0 24.12 0 12.24 0 0 Z " fill="#FF9AD8" transform="translate(796,349)"/>
<path d="M0 0 C62.7 0 125.4 0 190 0 C190 11.88 190 23.76 190 36 C127.3 36 64.6 36 0 36 C0 24.12 0 12.24 0 0 Z " fill="#FF9BD9" transform="translate(796,103)"/>
<path d="M0 0 C51.15 0 102.3 0 155 0 C155 12.21 155 24.42 155 37 C103.85 37 52.7 37 0 37 C0 24.79 0 12.58 0 0 Z " fill="#FF99D8" transform="translate(797,226)"/>
<path d="M0 0 C4.67511674 2.77585057 4.67511674 2.77585057 6.90234375 4.3125 C11.08362941 7.13747611 13.76527906 8.65434012 19 8 C19.33 8.99 19.66 9.98 20 11 C20.66 11 21.32 11 22 11 C22 11.66 22 12.32 22 13 C22.83402344 13.10957031 23.66804688 13.21914062 24.52734375 13.33203125 C29.82196974 14.07800948 34.85764796 14.79186266 39.875 16.6875 C44.00150426 18.21300989 46.7417327 17.99661575 51 17 C51.495 18.485 51.495 18.485 52 20 C53.13888672 20.09087891 53.13888672 20.09087891 54.30078125 20.18359375 C55.29464844 20.26738281 56.28851563 20.35117188 57.3125 20.4375 C58.29863281 20.51871094 59.28476562 20.59992188 60.30078125 20.68359375 C63 21 63 21 66 22 C67.65291859 22.09312712 69.30930516 22.13069176 70.96484375 22.1328125 C72.41213867 22.13474609 72.41213867 22.13474609 73.88867188 22.13671875 C75.3978418 22.13091797 75.3978418 22.13091797 76.9375 22.125 C77.93974609 22.12886719 78.94199219 22.13273437 79.97460938 22.13671875 C81.42383789 22.13478516 81.42383789 22.13478516 82.90234375 22.1328125 C83.78398193 22.13168457 84.66562012 22.13055664 85.57397461 22.12939453 C87.8545456 22.00775796 89.8140849 21.63923813 92 21 C92 21.66 92 22.32 92 23 C102.78574427 22.62019853 113.43443843 22.21125395 124.08984375 20.40234375 C127.09642721 19.98666845 129.96881189 19.93223872 133 20 C133 19.01 133 18.02 133 17 C134.134375 17.2475 135.26875 17.495 136.4375 17.75 C144.12644041 18.62595524 151.64690889 16.00440352 159 14 C160.0725 13.71382812 161.145 13.42765625 162.25 13.1328125 C167.08586198 11.89533199 167.08586198 11.89533199 171 9 C172.02480469 8.87753906 173.04960937 8.75507813 174.10546875 8.62890625 C178.77453462 7.8749247 182.18481471 6.15244883 186.3125 3.9375 C193.77692308 0 193.77692308 0 196 0 C195 3 195 3 191.5703125 4.90234375 C190.09415717 5.59286313 188.61195248 6.2705488 187.125 6.9375 C185.96677734 7.46863403 185.96677734 7.46863403 184.78515625 8.01049805 C178.95795816 10.64988316 173.07640404 12.99513994 167 15 C166.37971924 15.2254248 165.75943848 15.45084961 165.12036133 15.68310547 C158.75162082 17.93850641 152.32242325 19.27098264 145.6875 20.5 C144.54321533 20.71358154 143.39893066 20.92716309 142.2199707 21.1472168 C138.81510667 21.77519709 135.40800299 22.38931443 132 23 C131.07058594 23.17096191 130.14117187 23.34192383 129.18359375 23.51806641 C116.37495842 25.84361615 104.00596467 26.35257133 91 26 C91 26.99 91 27.98 91 29 C91.78375 28.896875 92.5675 28.79375 93.375 28.6875 C98.64757211 29.14203208 102.80263779 30.74416938 107 34 C109.25405131 37.66283338 111 41.64220939 111 46 C105.25 49 105.25 49 103 49 C103 52.63 103 56.26 103 60 C95.08 60 87.16 60 79 60 C78.67 56.37 78.34 52.74 78 49 C74.535 47.515 74.535 47.515 71 46 C72.03269223 40.89455526 74.47362949 36.80735621 78 33 C80.61205526 31.61900402 83.09611238 30.68904297 85.92578125 29.8515625 C86.61027344 29.57054687 87.29476562 29.28953125 88 29 C88.495 27.515 88.495 27.515 89 26 C87.93990723 26.02610352 87.93990723 26.02610352 86.85839844 26.05273438 C78.87951771 26.16185616 71.16056774 25.49329527 63.25 24.5 C61.47109375 24.28537109 61.47109375 24.28537109 59.65625 24.06640625 C56.76999852 23.71726293 53.88469878 23.36170967 51 23 C51 23.66 51 24.32 51 25 C51.825 24.9175 52.65 24.835 53.5 24.75 C58.05165734 25.07511838 61.36193141 26.21520976 65 29 C67.83569458 32.8919705 69.40288007 37.2230406 70 42 C67.69 42.99 65.38 43.98 63 45 C62.67 48.63 62.34 52.26 62 56 C54.41 56 46.82 56 39 56 C39 52.37 39 48.74 39 45 C36.69 44.34 34.38 43.68 32 43 C31.13451329 40.07898234 30.77441252 38.53940877 31.96875 35.68359375 C36.36251091 29.23866384 40.22890251 25.79333019 48 24 C48.33 23.34 48.66 22.68 49 22 C48.05125 21.87625 47.1025 21.7525 46.125 21.625 C41.37745198 20.95234946 36.69359847 19.97271759 32 19 C32.495 20.36125 32.495 20.36125 33 21.75 C34 25 34 25 34 29 C32.02 29.66 30.04 30.32 28 31 C28 33.97 28 36.94 28 40 C21.73 40 15.46 40 9 40 C9 37.03 9 34.06 9 31 C8.21625 30.855625 7.4325 30.71125 6.625 30.5625 C4 30 4 30 2 29 C2.83638652 23.77258424 5.36566273 19.26661138 9.5 16.0625 C12 15 12 15 16 15 C16 14.01 16 13.02 16 12 C15.175 11.79375 14.35 11.5875 13.5 11.375 C8.5264283 9.42109683 3.45070124 6.58004461 0.765625 1.8046875 C0.51296875 1.20914063 0.2603125 0.61359375 0 0 Z " fill="#EE9AD5" transform="translate(329,231)"/>
<path d="M0 0 C5.61 0 11.22 0 17 0 C17.680625 1.9490625 17.680625 1.9490625 18.375 3.9375 C20.69611519 9.25602653 24.29473521 12.17841308 28.65234375 15.875 C33.68385093 20.42930933 35.54762328 25.21434917 36 32 C36.07476562 32.84820312 36.14953125 33.69640625 36.2265625 34.5703125 C36.72439814 43.97678582 33.11906493 50.06210902 27 57 C18.67390132 63.02563813 10.07906755 64.50904475 0 63 C-8.09250444 60.20006175 -13.75701946 54.31548369 -18 47 C-20.13551 41.234123 -21.27865477 35.40974605 -19.0625 29.5 C-16.13499131 27.37090277 -13.71138581 27.4347224 -10.15625 27.63671875 C-8 28 -8 28 -5.5625 29.3125 C-3.09114841 33.56322474 -2.63266251 38.1717861 -2 43 C-0.515 43.495 -0.515 43.495 1 44 C1 44.66 1 45.32 1 46 C2.916588 46.02712153 4.8332873 46.04645097 6.75 46.0625 C7.81734375 46.07410156 8.8846875 46.08570313 9.984375 46.09765625 C12.53368501 46.01510087 14.57933591 45.74617558 17 45 C18.56650021 40.20259312 19.72719844 36.09038911 19 31 C16.73371153 27.39970896 13.93077914 24.67481487 10.5 22.1875 C5.306555 17.64323562 1.59347212 10.69258291 0 4 C0 2.68 0 1.36 0 0 Z " fill="#E0A9EF" transform="translate(420,375)"/>
<path d="M0 0 C0.33 0.99 0.66 1.98 1 3 C1.94875 2.896875 2.8975 2.79375 3.875 2.6875 C9.23241854 2.7420562 13.81898304 4.70608577 18 8 C20.25051154 11.6664344 22 15.64066452 22 20 C16.25 23 16.25 23 14 23 C14 26.63 14 30.26 14 34 C6.08 34 -1.84 34 -10 34 C-10.33 30.37 -10.66 26.74 -11 23 C-13.31 22.01 -15.62 21.02 -18 20 C-16.96730777 14.89455526 -14.52637051 10.80735621 -11 7 C-8.38794474 5.61900402 -5.90388762 4.68904297 -3.07421875 3.8515625 C-2.38972656 3.57054687 -1.70523437 3.28953125 -1 3 C-0.67 2.01 -0.34 1.02 0 0 Z " fill="#97CDEE" transform="translate(418,257)"/>
<path d="M0 0 C0.99 0.33 1.98 0.66 3 1 C2.34 1 1.68 1 1 1 C1 1.66 1 2.32 1 3 C1.825 2.9175 2.65 2.835 3.5 2.75 C8.05165734 3.07511838 11.36193141 4.21520976 15 7 C17.83569458 10.8919705 19.40288007 15.2230406 20 20 C17.69 20.99 15.38 21.98 13 23 C12.67 26.63 12.34 30.26 12 34 C4.41 34 -3.18 34 -11 34 C-11 30.37 -11 26.74 -11 23 C-13.31 22.34 -15.62 21.68 -18 21 C-18.86548671 18.07898234 -19.22558748 16.53940877 -18.03125 13.68359375 C-13.94372388 7.68786028 -10.469374 3.97160304 -3.125 2.375 C-2.073125 2.189375 -2.073125 2.189375 -1 2 C-0.67 1.34 -0.34 0.68 0 0 Z " fill="#CFF8AE" transform="translate(379,253)"/>
<path d="M0 0 C2.34023315 0.28082798 4.67305036 0.62468554 7 1 C8.03125 1.12375 9.0625 1.2475 10.125 1.375 C14.86284167 4.05291051 16.31526531 8.98306883 18 14 C18 14.99 18 15.98 18 17 C15.69 17.99 13.38 18.98 11 20 C10.67 23.63 10.34 27.26 10 31 C2.41 31 -5.18 31 -13 31 C-13 27.04 -13 23.08 -13 19 C-14.134375 18.731875 -15.26875 18.46375 -16.4375 18.1875 C-17.613125 17.795625 -18.78875 17.40375 -20 17 C-21 14 -21 14 -20.21484375 11.87890625 C-17.51232302 6.97800475 -15.36614802 3.22745767 -10 1 C-6.59399704 0.9897871 -3.3472342 1.39141196 0 2 C0 1.34 0 0.68 0 0 Z " fill="#EBD18D" transform="translate(504,248)"/>
<path d="M0 0 C4.63624755 0.402319 8.1941236 1.36931412 11.875 4.25 C17.20179372 11.14349776 17.20179372 11.14349776 16.6875 15.875 C16.460625 16.57625 16.23375 17.2775 16 18 C13.69 18.66 11.38 19.32 9 20 C9 23.63 9 27.26 9 31 C1.41 31 -6.18 31 -14 31 C-14 27.04 -14 23.08 -14 19 C-14.94875 18.855625 -15.8975 18.71125 -16.875 18.5625 C-20 18 -20 18 -22 17 C-21.31951434 11.38599329 -19.07620262 6.63910733 -14.625 3.125 C-10.07951835 1.17693644 -5.8773975 1 -1 1 C-0.67 0.67 -0.34 0.34 0 0 Z " fill="#ECA57A" transform="translate(467,256)"/>
<path d="M0 0 C4.67511674 2.77585057 4.67511674 2.77585057 6.90234375 4.3125 C11.08362941 7.13747611 13.76527906 8.65434012 19 8 C19.33 8.99 19.66 9.98 20 11 C20.66 11 21.32 11 22 11 C22 11.66 22 12.32 22 13 C22.83402344 13.10957031 23.66804688 13.21914062 24.52734375 13.33203125 C29.82196974 14.07800948 34.85764796 14.79186266 39.875 16.6875 C44.00150426 18.21300989 46.7417327 17.99661575 51 17 C51.495 18.485 51.495 18.485 52 20 C53.13888672 20.09087891 53.13888672 20.09087891 54.30078125 20.18359375 C55.29464844 20.26738281 56.28851563 20.35117188 57.3125 20.4375 C58.29863281 20.51871094 59.28476562 20.59992188 60.30078125 20.68359375 C63 21 63 21 66 22 C67.65291859 22.09312712 69.30930516 22.13069176 70.96484375 22.1328125 C72.41213867 22.13474609 72.41213867 22.13474609 73.88867188 22.13671875 C75.3978418 22.13091797 75.3978418 22.13091797 76.9375 22.125 C77.93974609 22.12886719 78.94199219 22.13273437 79.97460938 22.13671875 C81.42383789 22.13478516 81.42383789 22.13478516 82.90234375 22.1328125 C83.78398193 22.13168457 84.66562012 22.13055664 85.57397461 22.12939453 C87.8545456 22.00775796 89.8140849 21.63923813 92 21 C92 21.66 92 22.32 92 23 C102.78574427 22.62019853 113.43443843 22.21125395 124.08984375 20.40234375 C127.09642721 19.98666845 129.96881189 19.93223872 133 20 C133 19.01 133 18.02 133 17 C134.134375 17.2475 135.26875 17.495 136.4375 17.75 C144.12644041 18.62595524 151.64690889 16.00440352 159 14 C160.0725 13.71382812 161.145 13.42765625 162.25 13.1328125 C167.08586198 11.89533199 167.08586198 11.89533199 171 9 C172.02480469 8.87753906 173.04960937 8.75507813 174.10546875 8.62890625 C178.77453462 7.8749247 182.18481471 6.15244883 186.3125 3.9375 C193.77692308 0 193.77692308 0 196 0 C195 3 195 3 191.5703125 4.90234375 C190.09415717 5.59286313 188.61195248 6.2705488 187.125 6.9375 C185.96677734 7.46863403 185.96677734 7.46863403 184.78515625 8.01049805 C178.95795816 10.64988316 173.07640404 12.99513994 167 15 C166.37971924 15.2254248 165.75943848 15.45084961 165.12036133 15.68310547 C158.75162082 17.93850641 152.32242325 19.27098264 145.6875 20.5 C144.54321533 20.71358154 143.39893066 20.92716309 142.2199707 21.1472168 C138.81510667 21.77519709 135.40800299 22.38931443 132 23 C131.07058594 23.17096191 130.14117187 23.34192383 129.18359375 23.51806641 C116.37495842 25.84361615 104.00596467 26.35257133 91 26 C90.505 27.485 90.505 27.485 90 29 C90 28.01 90 27.02 90 26 C89.01 26.05220703 89.01 26.05220703 88 26.10546875 C80.00682646 26.32403209 72.29954101 25.56311515 64.375 24.5625 C63.30765625 24.42803467 62.2403125 24.29356934 61.140625 24.1550293 C53.42595794 23.14198598 53.42595794 23.14198598 50 22 C49.505 23.485 49.505 23.485 49 25 C49 24.01 49 23.02 49 22 C48.030625 21.88527344 47.06125 21.77054688 46.0625 21.65234375 C41.59389145 21.0128472 37.33182741 19.80899061 33 18.5625 C32.23171875 18.34529297 31.4634375 18.12808594 30.671875 17.90429688 C28.44656204 17.27416999 26.22307434 16.63797392 24 16 C22.6458707 15.61315044 21.29170747 15.22641958 19.9375 14.83984375 C18.968125 14.56269531 17.99875 14.28554687 17 14 C17 13.34 17 12.68 17 12 C16.27039063 11.89429688 15.54078125 11.78859375 14.7890625 11.6796875 C11.7740394 10.94493397 9.9171807 9.88093924 7.375 8.125 C6.61960937 7.61195313 5.86421875 7.09890625 5.0859375 6.5703125 C3.19540144 5.14709996 1.54021652 3.79528422 0 2 C0 1.34 0 0.68 0 0 Z " fill="#A7A1A0" transform="translate(329,231)"/>
<path d="M0 0 C0.66 0.33 1.32 0.66 2 1 C1.01 2.32 0.02 3.64 -1 5 C0.65 5 2.3 5 4 5 C2.68 5.33 1.36 5.66 0 6 C0 6.66 0 7.32 0 8 C-0.65226562 7.95359375 -1.30453125 7.9071875 -1.9765625 7.859375 C-6.32387683 7.67983989 -9.349274 7.71078845 -13.375 9.5 C-16.62055711 12.59100677 -18.52493062 15.77436008 -20 20 C-20 20.99 -20 21.98 -20 23 C-20.99 23 -21.98 23 -23 23 C-23.24621094 22.38769531 -23.49242187 21.77539062 -23.74609375 21.14453125 C-25.98822567 17.30985703 -29.84414891 16.12285418 -34 15 C-36.42009709 15.00770732 -38.58641484 15.26761242 -40.95703125 15.73828125 C-43.23748517 16.03042353 -44.82119388 15.6805709 -47 15 C-46 14 -46 14 -43.4375 13.9375 C-42.633125 13.958125 -41.82875 13.97875 -41 14 C-41 13.01 -41 12.02 -41 11 C-34.34760685 9.44188134 -27.69412521 7.931411 -21 6.5625 C-9.74386673 4.84491361 -9.74386673 4.84491361 0 0 Z " fill="#FAF8F6" transform="translate(504,242)"/>
<path d="M0 0 C3.57734096 2.17751189 5.4126676 4.17214089 7 8 C7.68755248 13.47008664 7.24468955 18.97189542 5 24 C0.94915876 28.89716304 -3.75012505 34.19448057 -10 36 C-13.41399647 35.409116 -15.26175982 34.93082458 -17.4375 32.1875 C-18.14747178 29.42649862 -17.85427621 27.70520799 -17 25 C-16.34 24.34 -15.68 23.68 -15 23 C-14.01 23.33 -13.02 23.66 -12 24 C-12.33 24.33 -12.66 24.66 -13 25 C-13.07148199 26.35243917 -13.08399454 27.70834367 -13.0625 29.0625 C-13.041875 30.361875 -13.02125 31.66125 -13 33 C-10.28325638 32.92009578 -8.51364367 32.44173356 -6.4375 30.65625 C-0.93455801 24.60301381 1.69589645 18.22412597 1.33984375 9.9921875 C1.0823795 7.79573272 1.0823795 7.79573272 -0.5 5.375 C-4.11251245 3.38811815 -7.16436151 4.03539389 -11 5 C-13.86673164 5.96026816 -13.86673164 5.96026816 -16 7 C-16.1546875 8.6396875 -16.1546875 8.6396875 -16.3125 10.3125 C-16.97307727 13.85559629 -17.2027092 14.93243723 -20 17 C-20.99 16.67 -21.98 16.34 -23 16 C-22.525625 15.2575 -22.05125 14.515 -21.5625 13.75 C-20.22130673 11.38949985 -19.487688 9.63351523 -19 7 C-19.66 6.67 -20.32 6.34 -21 6 C-19.96875 5.7525 -18.9375 5.505 -17.875 5.25 C-14.97434882 4.44781591 -13.60468114 3.71402465 -11.0625 1.875 C-6.87322198 -0.68986409 -4.86454194 -0.61771961 0 0 Z " fill="#EDCFF5" transform="translate(464,327)"/>
<path d="M0 0 C12.68771496 0.76166377 25.34081003 1.86656282 38 3 C37.63183594 4.93847656 37.63183594 4.93847656 37 7 C34.890625 7.984375 34.890625 7.984375 32.25 8.75 C27.17116376 10.54679228 25.33623446 12.59598295 23.03515625 17.390625 C22.69355469 17.92171875 22.35195313 18.4528125 22 19 C21.01 19 20.02 19 19 19 C18.731875 18.18015625 18.46375 17.3603125 18.1875 16.515625 C15.72151348 9.15867349 15.72151348 9.15867349 10.0625 4.3125 C6.78454132 3.07471295 3.4920236 2.34920236 0 2 C0 1.34 0 0.68 0 0 Z " fill="#FAFBFA" transform="translate(380,254)"/>
<path d="M0 0 C1.32 0.66 2.64 1.32 4 2 C5.19625 2.165 6.3925 2.33 7.625 2.5 C11 3 11 3 13 5 C13 6.32 13 7.64 13 9 C14.32 9 15.64 9 17 9 C17.268125 8.38125 17.53625 7.7625 17.8125 7.125 C19 5 19 5 22 3 C22 3.99 22 4.98 22 6 C21.34 6.66 20.68 7.32 20 8 C19.79476442 10.63671142 19.79476442 10.63671142 19.9375 13.5625 C19.99168936 15.37430953 20.02036523 17.18749468 20 19 C19 20 19 20 16.4375 20.0625 C15.633125 20.041875 14.82875 20.02125 14 20 C14 17.36 14 14.72 14 12 C12.989375 12.825 11.97875 13.65 10.9375 14.5 C7.24854513 17.17261016 4.57989423 17.46733615 0 17 C-0.33 15.35 -0.66 13.7 -1 12 C0.32 11.67 1.64 11.34 3 11 C2.67 12.32 2.34 13.64 2 15 C3.98 14.67 5.96 14.34 8 14 C8.33 11.03 8.66 8.06 9 5 C4.87596527 6.64856825 4.87596527 6.64856825 3 10 C2.34 10 1.68 10 1 10 C0.67 6.7 0.34 3.4 0 0 Z " fill="#EACAF2" transform="translate(387,328)"/>
<path d="M0 0 C-1 3 -1 3 -4.4296875 4.90234375 C-5.90584283 5.59286313 -7.38804752 6.2705488 -8.875 6.9375 C-9.64714844 7.29158936 -10.41929687 7.64567871 -11.21484375 8.01049805 C-17.04204184 10.64988316 -22.92359596 12.99513994 -29 15 C-29.61738037 15.22905029 -30.23476074 15.45810059 -30.87084961 15.6940918 C-37.32021059 18.01083836 -43.80450339 19.14060119 -50.5625 20.1875 C-52.21862305 20.45336914 -52.21862305 20.45336914 -53.90820312 20.72460938 C-56.60447344 21.15647951 -59.3016359 21.5814482 -62 22 C-62.33 20.35 -62.66 18.7 -63 17 C-61.865625 17.2475 -60.73125 17.495 -59.5625 17.75 C-51.87355959 18.62595524 -44.35309111 16.00440352 -37 14 C-35.9275 13.71382812 -34.855 13.42765625 -33.75 13.1328125 C-28.91413802 11.89533199 -28.91413802 11.89533199 -25 9 C-23.97519531 8.87753906 -22.95039063 8.75507813 -21.89453125 8.62890625 C-17.22546538 7.8749247 -13.81518529 6.15244883 -9.6875 3.9375 C-2.22307692 0 -2.22307692 0 0 0 Z " fill="#A9A7A5" transform="translate(525,231)"/>
<path d="M0 0 C3.57745685 1.50371543 5.7291041 3.57174679 8.37109375 6.38671875 C9.19287109 7.24201172 10.01464844 8.09730469 10.86132812 8.97851562 C12.5827894 10.78872547 14.29632651 12.60650324 16.00195312 14.43164062 C17.23655273 15.7087793 17.23655273 15.7087793 18.49609375 17.01171875 C19.24044678 17.80022217 19.9847998 18.58872559 20.75170898 19.40112305 C22.92137292 21.31103772 22.92137292 21.31103772 25.78149414 20.74926758 C26.51360107 20.50200928 27.24570801 20.25475098 28 20 C27.70222656 20.68449219 27.40445312 21.36898438 27.09765625 22.07421875 C26.71009518 24.93079381 26.71009518 24.93079381 28.13623047 26.63134766 C29.84311432 28.43452523 31.61025473 30.13143435 33.4375 31.8125 C34.06205078 32.40998047 34.68660156 33.00746094 35.33007812 33.62304688 C36.87361502 35.09588743 38.43515877 36.54981471 40 38 C37 38 37 38 34.2578125 35.55078125 C33.20585198 34.4788468 32.16186502 33.39904283 31.125 32.3125 C30.34962891 31.51682617 30.34962891 31.51682617 29.55859375 30.70507812 C28.57605206 29.69654981 27.59664427 28.68495083 26.62158203 27.66918945 C22.84702823 23.78381993 18.98200325 19.98700789 15.13671875 16.171875 C13.32024621 14.36464996 11.50384184 12.5573564 9.6875 10.75 C8.75615234 9.82703125 7.82480469 8.9040625 6.86523438 7.953125 C5.54555664 6.63828125 5.54555664 6.63828125 4.19921875 5.296875 C3.39315186 4.49604492 2.58708496 3.69521484 1.7565918 2.87011719 C0 1 0 1 0 0 Z " fill="#CF9CDC" transform="translate(267,248)"/>
<path d="M0 0 C4.67511674 2.77585057 4.67511674 2.77585057 6.90234375 4.3125 C11.08362941 7.13747611 13.76527906 8.65434012 19 8 C19.33 8.99 19.66 9.98 20 11 C20.66 11 21.32 11 22 11 C22 11.66 22 12.32 22 13 C22.763125 13.12375 23.52625 13.2475 24.3125 13.375 C27 14 27 14 30 16 C28.58297487 15.85769192 27.1663904 15.71099254 25.75 15.5625 C24.56664062 15.44068359 24.56664062 15.44068359 23.359375 15.31640625 C21.17635361 15.02365007 19.1226818 14.57935581 17 14 C17 13.34 17 12.68 17 12 C16.27039063 11.89429688 15.54078125 11.78859375 14.7890625 11.6796875 C11.7740394 10.94493397 9.9171807 9.88093924 7.375 8.125 C6.61960937 7.61195313 5.86421875 7.09890625 5.0859375 6.5703125 C3.19540144 5.14709996 1.54021652 3.79528422 0 2 C0 1.34 0 0.68 0 0 Z " fill="#A8A2A0" transform="translate(329,231)"/>
<path d="M0 0 C0.495 0.99 0.495 0.99 1 2 C-10.90679536 7.95339768 -28.30845366 4.76224599 -41 4 C-41 3.67 -41 3.34 -41 3 C-40.15574463 2.970271 -40.15574463 2.970271 -39.29443359 2.93994141 C-29.07082703 2.56283263 -19.00958222 2.11686836 -8.91015625 0.40234375 C-5.90357279 -0.01333155 -3.03118811 -0.06776128 0 0 Z " fill="#AFAEAC" transform="translate(462,251)"/>
<path d="M0 0 C-1 3 -1 3 -2.57885742 4.04321289 C-3.24763916 4.3499292 -3.9164209 4.65664551 -4.60546875 4.97265625 C-5.34216797 5.31490234 -6.07886719 5.65714844 -6.83789062 6.00976562 C-8.00094727 6.53086914 -8.00094727 6.53086914 -9.1875 7.0625 C-10.32155273 7.5894043 -10.32155273 7.5894043 -11.47851562 8.12695312 C-15.58752754 10.01218062 -19.67155304 11.66763913 -24 13 C-24.33 11.68 -24.66 10.36 -25 9 C-24.01644531 8.91878906 -23.03289062 8.83757812 -22.01953125 8.75390625 C-17.4246912 8.09783113 -13.73868305 6.11139711 -9.6875 3.9375 C-2.22307692 0 -2.22307692 0 0 0 Z " fill="#9B9997" transform="translate(525,231)"/>
<path d="M0 0 C1.77119803 0.14133499 3.54195287 0.28823208 5.3125 0.4375 C6.29863281 0.51871094 7.28476562 0.59992188 8.30078125 0.68359375 C11 1 11 1 14 2 C15.69867188 2.14777936 17.40177489 2.24747066 19.10546875 2.31640625 C20.57983398 2.37924805 20.57983398 2.37924805 22.08398438 2.44335938 C23.62022461 2.50233398 23.62022461 2.50233398 25.1875 2.5625 C26.74114258 2.62727539 26.74114258 2.62727539 28.32617188 2.69335938 C30.8839819 2.79944366 33.44188845 2.90150146 36 3 C36 3.33 36 3.66 36 4 C12.41761516 5.60666308 12.41761516 5.60666308 1 3 C0.67 2.01 0.34 1.02 0 0 Z " fill="#AEADAB" transform="translate(381,251)"/>
<path d="M0 0 C0.99 0 1.98 0 3 0 C3.36426713 6.43538595 3.36426713 6.43538595 1.75 8.9375 C0 10 0 10 -4 10 C-3.67 8.68 -3.34 7.36 -3 6 C-6.0745356 6.7763932 -6.0745356 6.7763932 -8 9 C-7.67 7.68 -7.34 6.36 -7 5 C-6.401875 4.9175 -5.80375 4.835 -5.1875 4.75 C-2.39901853 3.79394921 -1.72147066 2.32024306 0 0 Z " fill="#D6A3E4" transform="translate(393,333)"/>
<path d="M0 0 C1.98 0.66 3.96 1.32 6 2 C5.01 2.495 5.01 2.495 4 3 C4.04125 4.11375 4.0825 5.2275 4.125 6.375 C4 10 4 10 2 12 C1.01 12 0.02 12 -1 12 C-0.67 8.04 -0.34 4.08 0 0 Z " fill="#ECCCF4" transform="translate(410,333)"/>
<path d="M0 0 C0.85271484 0.10828125 0.85271484 0.10828125 1.72265625 0.21875 C6.52364968 0.79583101 11.16565627 1.10285838 16 1 C13.27893306 3.72106694 11.15223689 3.60655572 7.375 4.125 C5.59222656 4.37636719 5.59222656 4.37636719 3.7734375 4.6328125 C2.85820312 4.75398437 1.94296875 4.87515625 1 5 C0.67 3.35 0.34 1.7 0 0 Z " fill="#9B9997" transform="translate(462,248)"/>
<path d="M0 0 C-0.75 6.75 -0.75 6.75 -3 9 C-4.32 9 -5.64 9 -7 9 C-4.4 0 -4.4 0 0 0 Z " fill="#D5A3E2" transform="translate(445,334)"/>
<path d="M0 0 C0.66 0.33 1.32 0.66 2 1 C1.01 2.32 0.02 3.64 -1 5 C0.65 5 2.3 5 4 5 C2.68 5.33 1.36 5.66 0 6 C0 6.66 0 7.32 0 8 C-2.64 7.67 -5.28 7.34 -8 7 C-6.68 6.67 -5.36 6.34 -4 6 C-4 4.68 -4 3.36 -4 2 C-2.125 0.9375 -2.125 0.9375 0 0 Z " fill="#E4D8D1" transform="translate(504,242)"/>
<path d="M0 0 C3.78239671 0.65690619 7.21841526 1.720131 10.8125 3.0625 C11.78832031 3.42472656 12.76414062 3.78695312 13.76953125 4.16015625 C14.50558594 4.43730469 15.24164063 4.71445313 16 5 C16 5.33 16 5.66 16 6 C14.58297487 5.85769192 13.1663904 5.71099254 11.75 5.5625 C10.56664062 5.44068359 10.56664062 5.44068359 9.359375 5.31640625 C7.17635361 5.02365007 5.1226818 4.57935581 3 4 C3 3.34 3 2.68 3 2 C2.01 2 1.02 2 0 2 C0 1.34 0 0.68 0 0 Z " fill="#9B9192" transform="translate(343,241)"/>
<path d="M0 0 C-0.99 0.495 -0.99 0.495 -2 1 C-2.33 2.32 -2.66 3.64 -3 5 C-5.97 5 -8.94 5 -12 5 C-11.67 4.34 -11.34 3.68 -11 3 C-9.35 3 -7.7 3 -6 3 C-6 2.01 -6 1.02 -6 0 C-3.50907189 -1.24546405 -2.58919267 -0.7767578 0 0 Z " fill="#E2D5D1" transform="translate(469,253)"/>
<path d="M0 0 C0.99 0.33 1.98 0.66 3 1 C2.34 1 1.68 1 1 1 C1 1.66 1 2.32 1 3 C1.66 3.33 2.32 3.66 3 4 C2.67 4.66 2.34 5.32 2 6 C-0.97 5.67 -3.94 5.34 -7 5 C-6.67 4.34 -6.34 3.68 -6 3 C-4.33333333 2.66666667 -2.66666667 2.33333333 -1 2 C-0.67 1.34 -0.34 0.68 0 0 Z " fill="#DFE4D1" transform="translate(379,253)"/>
<path d="M0 0 C1.65 0 3.3 0 5 0 C4.34 2.31 3.68 4.62 3 7 C2.01 7 1.02 7 0 7 C0 4.69 0 2.38 0 0 Z " fill="#EECFF5" transform="translate(426,338)"/>
<path d="M0 0 C4.95 0.33 9.9 0.66 15 1 C15 1.33 15 1.66 15 2 C14.21625 2.144375 13.4325 2.28875 12.625 2.4375 C10.03578982 2.87798925 10.03578982 2.87798925 8 4 C6.0546875 3.66015625 6.0546875 3.66015625 3.875 3.0625 C3.15054687 2.86785156 2.42609375 2.67320312 1.6796875 2.47265625 C1.12539063 2.31667969 0.57109375 2.16070312 0 2 C0 1.34 0 0.68 0 0 Z " fill="#EEEFEB" transform="translate(380,254)"/>
<path d="M0 0 C1.98 0.495 1.98 0.495 4 1 C4 1.66 4 2.32 4 3 C3.34 3 2.68 3 2 3 C2.33 4.32 2.66 5.64 3 7 C1.68 7.33 0.36 7.66 -1 8 C-0.67 5.36 -0.34 2.72 0 0 Z " fill="#EDCEF4" transform="translate(419,337)"/>
<path d="M0 0 C1.32 0.33 2.64 0.66 4 1 C4 1.99 4 2.98 4 4 C4.99 4.33 5.98 4.66 7 5 C5.35 5 3.7 5 2 5 C1.67 5.99 1.34 6.98 1 8 C1 6.68 1 5.36 1 4 C0.01 3.67 -0.98 3.34 -2 3 C-1.34 3 -0.68 3 0 3 C0 2.01 0 1.02 0 0 Z " fill="#A69493" transform="translate(377,248)"/>
<path d="M0 0 C0 0.66 0 1.32 0 2 C-4.455 3.485 -4.455 3.485 -9 5 C-9.33 3.68 -9.66 2.36 -10 1 C-3.375 0 -3.375 0 0 0 Z " fill="#9A8D8C" transform="translate(510,239)"/>
<path d="M0 0 C3.3 0 6.6 0 10 0 C10.33 1.32 10.66 2.64 11 4 C6.00837213 3.52003578 4.14964417 3.11223313 0 0 Z " fill="#A9A6A5" transform="translate(367,249)"/>
<path d="M0 0 C0.33 0.66 0.66 1.32 1 2 C1.99 2 2.98 2 4 2 C3.67 2.99 3.34 3.98 3 5 C0.69 4.67 -1.62 4.34 -4 4 C-2.68 3.67 -1.36 3.34 0 3 C0 2.01 0 1.02 0 0 Z " fill="#E8CEDC" transform="translate(345,243)"/>
<path d="M0 0 C0.99 0 1.98 0 3 0 C2.6875 1.875 2.6875 1.875 2 4 C1.01 4.66 0.02 5.32 -1 6 C-1.33 4.68 -1.66 3.36 -2 2 C-1.34 2 -0.68 2 0 2 C0 1.34 0 0.68 0 0 Z " fill="#DDBAE6" transform="translate(423,338)"/>
<path d="M0 0 C0 0.99 0 1.98 0 3 C-3.63 2.67 -7.26 2.34 -11 2 C-11 1.67 -11 1.34 -11 1 C-9.54182203 0.83197949 -8.0834516 0.66562857 -6.625 0.5 C-5.81289063 0.4071875 -5.00078125 0.314375 -4.1640625 0.21875 C-2 0 -2 0 0 0 Z " fill="#EDECEB" transform="translate(463,253)"/>
<path d="M0 0 C0.33 1.32 0.66 2.64 1 4 C1.99 4 2.98 4 4 4 C4 4.66 4 5.32 4 6 C2.35 6 0.7 6 -1 6 C-1.042721 4.33388095 -1.04063832 2.66617115 -1 1 C-0.67 0.67 -0.34 0.34 0 0 Z " fill="#EECFF6" transform="translate(402,342)"/>
<path d="M0 0 C0.66 0.33 1.32 0.66 2 1 C-0.31 3.31 -2.62 5.62 -5 8 C-5 5 -5 5 -2.5 2.3125 C-1.675 1.549375 -0.85 0.78625 0 0 Z " fill="#D9F8C0" transform="translate(369,258)"/>
<path d="M0 0 C0.33 0.99 0.66 1.98 1 3 C1.99 3 2.98 3 4 3 C3.67 3.99 3.34 4.98 3 6 C1.68 6 0.36 6 -1 6 C-0.67 4.02 -0.34 2.04 0 0 Z " fill="#D8D9DF" transform="translate(418,257)"/>
<path d="M0 0 C1.32 0.33 2.64 0.66 4 1 C3.67 2.32 3.34 3.64 3 5 C2.01 4.67 1.02 4.34 0 4 C0 2.68 0 1.36 0 0 Z " fill="#A89190" transform="translate(462,248)"/>
</svg>
